<svg xmlns="http://www.w3.org/2000/svg" viewBox="0 0 24 24" width="20" height="20"><path d="M11.914 0C5.82 0 6.2 2.656 6.2 2.656l.007 2.752h5.814v.826H3.9S0 5.789 0 11.969c0 6.18 3.403 5.96 3.403 5.96h2.03v-2.867s-.109-3.403 3.35-3.403h5.766s3.24.052 3.24-3.134V3.195S18.28 0 11.914 0zM8.708 1.845a1.052 1.052 0 1 1 0 2.103 1.052 1.052 0 0 1 0-2.103z" fill="#3776AB"/><path d="M12.086 24c6.094 0 5.714-2.656 5.714-2.656l-.007-2.752h-5.814v-.826h8.121S24 18.211 24 12.031c0-6.18-3.403-5.96-3.403-5.96h-2.03v2.867s.109 3.403-3.35 3.403H9.451s-3.24-.052-3.24 3.134v5.33S5.72 24 12.086 24zm3.206-1.845a1.052 1.052 0 1 1 0-2.103 1.052 1.052 0 0 1 0 2.103z" fill="#FFD43B"/></svg>
